<svg xmlns="http://www.w3.org/2000/svg" viewBox="0 0 512 512" width="512" height="512">
  <defs>
    <linearGradient id="ainessFace" x1="64" y1="32" x2="448" y2="480" gradientUnits="userSpaceOnUse">
      <stop offset="0" stop-color="#A855F7"/>
      <stop offset=".55" stop-color="#6366F1"/>
      <stop offset="1" stop-color="#4338CA"/>
    </linearGradient>
    <linearGradient id="ainessShine" x1="96" y1="48" x2="288" y2="288" gradientUnits="userSpaceOnUse">
      <stop offset="0" stop-color="#FFFFFF" stop-opacity=".26"/>
      <stop offset="1" stop-color="#FFFFFF" stop-opacity="0"/>
    </linearGradient>
  </defs>
  <path fill="url(#ainessFace)" d="M256 8c184 0 248 64 248 248s-64 248-248 248S8 440 8 256 72 8 256 8Z"/>
  <path fill="url(#ainessShine)" d="M256 8c184 0 248 64 248 248s-64 248-248 248S8 440 8 256 72 8 256 8Z"/>
  <g fill="#FFFFFF">
    <rect x="140" y="176" width="68" height="128" rx="34"/>
    <rect x="304" y="176" width="68" height="128" rx="34"/>
    <path d="M182 348q74 86 148 0q-74 34-148 0Z"/>
  </g>
</svg>
